name rise45.9887peak57.8056fall74.9286.mot
datacolumns 19
datarows 12
range 16.28993700000000 16.30827500000000
endheader
time	ground_force1_vx	ground_force1_vy	ground_force1_vz	ground_force1_px	ground_force1_py	ground_force1_pz	ground_force2_vx	ground_force2_vy	ground_force2_vz	ground_force2_px	ground_force2_py	ground_force2_pz	ground_torque1_x	ground_torque1_y	ground_torque1_z	ground_torque2_x	ground_torque2_y	ground_torque2_z	
16.28993700000000	1.36873400000000	711.90687300000002	45.41442900000000	0.18466900000000	0.00000000000000	0.13256700000000	0.00000000000000	0.00000000000000	0.00000000000000	0.00000000000000	0.00000000000000	0.00000000000000	0.00000000000000	17.67015200000000	0.00000000000000	0.00000000000000	0.00000000000000	0.00000000000000	
16.29161000000000	1.06462300000000	713.23039000000006	45.45941900000000	0.18384400000000	0.00000000000000	0.13255800000000	0.00000000000000	0.00000000000000	0.00000000000000	0.00000000000000	0.00000000000000	0.00000000000000	0.00000000000000	17.73133000000000	0.00000000000000	0.00000000000000	0.00000000000000	0.00000000000000	
16.29327000000000	0.75473600000000	714.57797700000003	45.50942200000000	0.18300000000000	0.00000000000000	0.13255100000000	0.00000000000000	0.00000000000000	0.00000000000000	0.00000000000000	0.00000000000000	0.00000000000000	0.00000000000000	17.79525700000000	0.00000000000000	0.00000000000000	0.00000000000000	0.00000000000000	
16.29494100000000	0.43878900000000	715.94753300000002	45.56420900000000	0.18213600000000	0.00000000000000	0.13254600000000	0.00000000000000	0.00000000000000	0.00000000000000	0.00000000000000	0.00000000000000	0.00000000000000	0.00000000000000	17.86188600000000	0.00000000000000	0.00000000000000	0.00000000000000	0.00000000000000	
16.29660200000000	0.11653600000000	717.33699100000001	45.62355800000000	0.18125400000000	0.00000000000000	0.13254200000000	0.00000000000000	0.00000000000000	0.00000000000000	0.00000000000000	0.00000000000000	0.00000000000000	0.00000000000000	17.93117100000000	0.00000000000000	0.00000000000000	0.00000000000000	0.00000000000000	
16.29827000000000	-0.21223700000000	718.74431600000003	45.68725300000000	0.18035400000000	0.00000000000000	0.13253900000000	0.00000000000000	0.00000000000000	0.00000000000000	0.00000000000000	0.00000000000000	0.00000000000000	0.00000000000000	18.00306500000000	0.00000000000000	0.00000000000000	0.00000000000000	0.00000000000000	
16.29993600000000	-0.54770500000000	720.16751199999999	45.75508200000000	0.17943800000000	0.00000000000000	0.13253700000000	0.00000000000000	0.00000000000000	0.00000000000000	0.00000000000000	0.00000000000000	0.00000000000000	0.00000000000000	18.07751900000000	0.00000000000000	0.00000000000000	0.00000000000000	0.00000000000000	
16.30161000000000	-0.89001200000000	721.60462500000006	45.82684100000000	0.17850600000000	0.00000000000000	0.13253700000000	0.00000000000000	0.00000000000000	0.00000000000000	0.00000000000000	0.00000000000000	0.00000000000000	0.00000000000000	18.15448500000000	0.00000000000000	0.00000000000000	0.00000000000000	0.00000000000000	
16.30327000000000	-1.23926400000000	723.05374600000005	45.90233000000000	0.17756000000000	0.00000000000000	0.13253700000000	0.00000000000000	0.00000000000000	0.00000000000000	0.00000000000000	0.00000000000000	0.00000000000000	0.00000000000000	18.23391500000000	0.00000000000000	0.00000000000000	0.00000000000000	0.00000000000000	
16.30493900000000	-1.59553600000000	724.51301500000000	45.98135600000000	0.17660000000000	0.00000000000000	0.13253900000000	0.00000000000000	0.00000000000000	0.00000000000000	0.00000000000000	0.00000000000000	0.00000000000000	0.00000000000000	18.31575700000000	0.00000000000000	0.00000000000000	0.00000000000000	0.00000000000000	
16.30660800000000	-1.95887000000000	725.98062500000003	46.06373400000000	0.17562900000000	0.00000000000000	0.13254100000000	0.00000000000000	0.00000000000000	0.00000000000000	0.00000000000000	0.00000000000000	0.00000000000000	0.00000000000000	18.39996000000000	0.00000000000000	0.00000000000000	0.00000000000000	0.00000000000000	
16.30827500000000	-2.32927400000000	727.45482000000004	46.14928500000000	0.17464600000000	0.00000000000000	0.13254400000000	0.00000000000000	0.00000000000000	0.00000000000000	0.00000000000000	0.00000000000000	0.00000000000000	0.00000000000000	18.48647000000000	0.00000000000000	0.00000000000000	0.00000000000000	0.00000000000000	
